<svg version="1.2" xmlns="http://www.w3.org/2000/svg" viewBox="0 0 40 32" width="40" height="32">
	<title>counter-svg</title>
	<style>
		.s0 { fill: #000000 } 
	</style>
	<path id="Layer" fill-rule="evenodd" class="s0" d="m4 0h32q0.8 0 1.5 0.3 0.8 0.3 1.3 0.9 0.6 0.6 0.9 1.3 0.3 0.7 0.3 1.5v24q0 0.8-0.3 1.5-0.3 0.7-0.9 1.3-0.5 0.6-1.3 0.9-0.7 0.3-1.5 0.3h-32q-0.8 0-1.5-0.3-0.8-0.3-1.3-0.9-0.6-0.6-0.9-1.3-0.3-0.7-0.3-1.5v-24q0-0.8 0.3-1.5 0.3-0.7 0.9-1.3 0.5-0.6 1.3-0.9 0.7-0.3 1.5-0.3zm0 28h14v-24h-14zm32 0v-23.9h-2.5c0.5 1 0.4 2.1 0.4 2.2-0.2 1.4-1.1 2.8-1.4 3.3l-4.7 5h6.6l0.1 2.4h-10.4l-0.1-2c0 0 6.1-6.5 6.4-7 0.3-0.6 1.4-3.9-1.4-3.9-2.5 0.1-2.2 2.6-2.2 2.6h-3.1c0 0 0.1-1.3 0.8-2.6h-2.5v23.9h5.2l-0.1-1.7h2c0 0 1.8-0.3 1.8-2.1 0.1-2-1.6-2-1.9-2-0.3 0-2.1 0.1-2.1 1.7h-3.1c0 0 0.1-4.1 5.2-4.1 5.2 0 4.9 4.1 4.9 4.1 0 0 0.1 2.4-2.2 3.4l1 0.7zm-22.1-4h-3v-11.5l-3.6 1.1v-2.5l6.3-2.2h0.3z"/>
</svg>